<svg id="Ebene_1" data-name="Ebene 1" xmlns="http://www.w3.org/2000/svg" width="512pt" height="512pt" viewBox="0 0 512 512"><title>right_dark_with_circle_hover</title><path id="circle-hover" d="M0,256C0,397.39,114.61,512,256,512S512,397.39,512,256,397.39,0,256,0,0,114.61,0,256Z" style="fill:#fff"/><g id="right-hover"><g id="right_dark_vector" data-name="right dark vector"><path d="M209.22,397a4.7,4.7,0,0,1-3.35-1.39,4.75,4.75,0,0,1,0-6.71L338.75,256,205.87,123.11a4.74,4.74,0,1,1,6.7-6.7L348.81,252.65a4.74,4.74,0,0,1,0,6.7L212.57,395.59A4.7,4.7,0,0,1,209.22,397Z" style="fill:#dc0000"/></g></g></svg>
