<svg id="Ebene_1" data-name="Ebene 1" xmlns="http://www.w3.org/2000/svg" width="512pt" height="512pt" viewBox="0 0 512 512">
<title>right_dark_with_circle</title>
<path d="M209.22,397a4.7,4.7,0,0,1-3.35-1.39,4.75,4.75,0,0,1,0-6.71L338.75,256,205.87,123.11a4.74,4.74,0,1,1,6.7-6.7L348.81,252.65a4.74,4.74,0,0,1,0,6.7L212.57,395.59A4.7,4.7,0,0,1,209.22,397Z" style="fill:#706f6f"/>
<path d="M256,0C114.62,0,0,114.62,0,256S114.62,512,256,512,512,397.38,512,256,397.38,0,256,0Zm0,502.53C119.85,502.53,9.47,392.15,9.47,256S119.85,9.47,256,9.47,502.53,119.85,502.53,256,392.15,502.53,256,502.53Z" style="fill:#706f6f"/>
</svg>
