<?xml version="1.0" encoding="UTF-8"?>
<svg width="22px" height="22px" viewBox="0 0 22 22" version="1.1" xmlns="http://www.w3.org/2000/svg" xmlns:xlink="http://www.w3.org/1999/xlink">
    <title>搜索</title>
    <defs>
        <polygon id="path-1" points="0 0 19.925896 0 19.925896 19.4614682 0 19.4614682"></polygon>
    </defs>
    <g id="页面-1" stroke="none" stroke-width="1" fill="none" fill-rule="evenodd">
        <g id="切图" transform="translate(-189.000000, -13.000000)">
            <g id="编组" transform="translate(190.000000, 14.000000)">
                <mask id="mask-2" fill="white">
                    <use xlink:href="#path-1"></use>
                </mask>
                <g id="Clip-2"></g>
                <path d="M8.81004624,15.7161503 C4.9976763,15.7161503 1.89467052,12.6177688 1.89467052,8.80539884 C1.89467052,4.9930289 4.9976763,1.89695954 8.81004624,1.89695954 C12.6224162,1.89695954 15.725422,4.99765318 15.725422,8.80771098 C15.725422,12.6177688 12.6224162,15.7161503 8.81004624,15.7161503 M19.648659,17.8395029 L15.868659,14.061815 C16.9662312,12.5946474 17.6199884,10.7808902 17.6199884,8.80539884 C17.6199884,3.94169942 13.6736301,-3.46820809e-05 8.8077341,-3.46820809e-05 C3.94403468,0.00227745665 -1.15606936e-05,3.94401156 -1.15606936e-05,8.80771098 C-1.15606936e-05,13.6714104 3.94403468,17.6130289 8.81004624,17.6130289 C11.0188324,17.6130289 13.0314335,16.7951098 14.5770983,15.4549942 L18.3039191,19.1819306 C18.4888902,19.3667861 18.7313179,19.4614682 18.976289,19.4614682 C19.2212601,19.4614682 19.4616069,19.3667861 19.648659,19.1819306 C20.0183699,18.8100231 20.0183699,18.2090983 19.648659,17.8395029" id="Fill-1" fill="#FFFFFF" mask="url(#mask-2)"></path>
            </g>
        </g>
    </g>
</svg>