<svg xmlns="http://www.w3.org/2000/svg" width="530pt" height="512pt" viewBox="0 0 530 512"><g fill="#fff"><path d="M172.945 357.277h52.68a5.862 5.862 0 0 0 .625-11.707h-47.441V228.488a32.31 32.31 0 0 1 35.11-35.121h140.468a32.92 32.92 0 0 1 25.558 9.559 32.932 32.932 0 0 1 9.57 25.562v70.254a5.86 5.86 0 0 0 11.704 0v-70.254a44.6 44.6 0 0 0-46.816-46.828H213.917a43.897 43.897 0 0 0-34.059 12.758 43.922 43.922 0 0 0-12.757 34.07V351.43a5.863 5.863 0 0 0 5.843 5.847zm111.215-204.91c42.024 0 76.086-34.07 76.086-76.101 0-42.028-34.062-76.102-76.086-76.102-42.02 0-76.086 34.074-76.086 76.102 0 42.03 34.067 76.101 76.086 76.101zm0-140.496c35.559 0 64.383 28.832 64.383 64.395 0 35.566-28.824 64.398-64.383 64.398-35.555 0-64.379-28.832-64.379-64.398 0-35.563 28.824-64.395 64.38-64.395zM524.14 345.57H301.728a5.859 5.859 0 0 0-5.86 5.86v152.203a5.86 5.86 0 0 0 5.86 5.863H524.14a5.862 5.862 0 0 0 5.859-5.863V351.414a5.858 5.858 0 0 0-5.86-5.844zm-16.859 11.707l-94.355 74.453-94.36-74.468zm10.996 140.496H307.57V363.484l101.7 80.317a5.862 5.862 0 0 0 7.261 0l101.73-80.317zM215.023 443.8l-2.93-2.929c-24.577-24.582-34.175-20.023-51.855-8.234l-2.34 1.648c-10.418 6.914-31.605 1.645-60.05-34.066-24.461-30.676-31.836-52.688-20.727-61.942 1.992-1.648 3.984-3.164 5.863-4.445a24.142 24.142 0 0 0 12.297-15.578c1.281-9.137-4.562-20.844-20.957-41.805-8.43-10.77-15.804-18.11-24.824-19.312-11.703-1.516-25.168 5.73-39.098 21.668-10.879 12.414-13.168 28.91-7.144 50.582A303.023 303.023 0 0 0 57.105 431.14 248.886 248.886 0 0 0 140.93 497a126.617 126.617 0 0 0 49.515 14.816c4.961.149 9.89-.855 14.403-2.93 18.109-9.023 27.625-18.738 29.27-29.734 2.304-14.492-10.009-26.574-19.095-35.351zm7.489 33.49c-1.055 6.784-9.02 14.046-23.407 21.077-9.023 4.559-29.96 0-53.273-11.707a237.683 237.683 0 0 1-80.066-62.883 294.248 294.248 0 0 1-50.918-97.289c-4.938-17.57-3.391-30.558 4.562-39.699a42.956 42.956 0 0 1 27.274-17.914h1.648c5.383.707 11.703 7.84 17.086 14.82 5.383 6.98 19.672 25.176 18.617 32.93 0 2.453-2.93 4.445-7.605 7.723-2.106 1.511-4.328 3.16-6.582 5.039-11.703 9.879-18.11 31.496 19.078 78.207 42.027 52.687 68.597 41.328 75.722 36.535l2.454-1.645c14.98-10.078 18.109-11.707 36.992 6.782l3.043 2.933c7.375 7.406 16.742 16.547 15.457 25.09zm0 0"/></g></svg>