<?xml version="1.0" encoding="UTF-8"?>
<svg width="22px" height="22px" viewBox="0 0 22 22" version="1.1" xmlns="http://www.w3.org/2000/svg" xmlns:xlink="http://www.w3.org/1999/xlink">
    <title>电话</title>
    <defs>
        <polygon id="path-1" points="0 0 19.9197544 0 19.9197544 19.99978 0 19.99978"></polygon>
    </defs>
    <g id="页面-1" stroke="none" stroke-width="1" fill="none" fill-rule="evenodd">
        <g id="切图" transform="translate(-152.000000, -13.000000)">
            <g id="编组" transform="translate(153.000000, 14.000000)">
                <mask id="mask-2" fill="white">
                    <use xlink:href="#path-1"></use>
                </mask>
                <g id="Clip-2"></g>
                <path d="M16.7672338,13.62988 C15.8460398,12.88578 15.0225572,12.52448 14.2505174,12.52448 C13.1160896,12.52448 12.3773831,13.27738 11.7256418,13.94148 L11.5162886,14.12008 C11.3169851,14.12008 10.4939005,13.94678 8.26693532,11.70958 C5.66802985,9.09938 5.86962189,8.41348 5.86962189,8.41218 L6.04862687,8.23398 C7.0740995,7.21738 8.47887562,5.82468 6.35837811,3.16978 C5.62484577,2.25138 4.78962189,1.78498 3.87668657,1.78498 C2.42255721,1.78498 1.24056716,2.97328 0.606139303,3.61098 C-1.2700796,5.49778 1.47628856,11.07798 5.18623881,14.80698 C8.75608955,18.39378 12.4828557,19.99978 14.5935025,19.99978 C15.3546965,19.99978 15.9381791,19.80068 16.3269353,19.40998 C16.9419602,18.79188 18.2221592,17.50668 18.1395721,15.98048 C18.0933035,15.11858 17.6314129,14.32758 16.7672338,13.62988 M15.4092239,18.48758 C15.3469353,18.55018 15.1436517,18.69578 14.5935025,18.69578 C12.8103184,18.69578 9.39320398,17.19018 6.10365174,13.88508 C1.78464677,9.54368 0.802457711,5.25788 1.52385075,4.53328 C1.9901194,4.06428 2.95977114,3.08888 3.87668657,3.08888 C4.38395025,3.08888 4.86494527,3.38228 5.34623881,3.98568 C6.73370149,5.72298 6.13300498,6.31888 5.13738308,7.30598 L4.95230846,7.49028 C4.70265672,7.74068 4.57081592,8.07098 4.57081592,8.44608 C4.57041791,9.04508 4.85837811,10.13048 7.34962189,12.63198 C9.84126368,15.13468 10.9207662,15.42408 11.5162886,15.42408 L11.5166866,15.42408 C11.8887264,15.42408 12.2169851,15.29248 12.4664378,15.04248 L12.6494229,14.85698 C13.1909154,14.30538 13.6588756,13.82848 14.2505174,13.82848 C14.7089254,13.82848 15.2824577,14.10358 15.954597,14.64608 C16.5272338,15.10898 16.8182786,15.56798 16.8438507,16.05138 C16.8952935,16.99588 15.8918109,18.00338 15.4092239,18.48758 M16.9284279,3.13018 C12.5117114,-1.30552 8.48136318,0.25098 8.31181095,0.31968 C7.97967164,0.45398 7.81827861,0.83398 7.95191045,1.16768 C8.0860398,1.50198 8.46315423,1.66408 8.79579104,1.52938 C8.82952239,1.51588 12.194796,0.21888 16.0111144,4.05218 C19.5264378,7.58328 18.4944975,11.16888 18.4499204,11.31708 C18.3431542,11.66088 18.533005,12.02688 18.8746965,12.13468 C18.9390746,12.15508 19.0048458,12.16418 19.0688259,12.16418 C19.3452438,12.16418 19.6012637,11.98598 19.6881294,11.70728 C19.7444478,11.52658 21.0202687,7.23998 16.9284279,3.13018 M15.4797711,9.34868 C15.5286269,9.67128 15.8054428,9.90158 16.1197711,9.90158 C16.1531045,9.90158 16.1859403,9.89948 16.2192736,9.89428 C16.5735025,9.83948 16.8165871,9.50648 16.7620597,9.15098 C15.9014627,3.51738 10.875791,3.25268 10.8251443,3.25048 C10.4769851,3.23178 10.1656418,3.51598 10.1514129,3.87588 C10.1370846,4.23588 10.4160896,4.53918 10.773801,4.55358 C10.814,4.55528 14.7791741,4.76568 15.4797711,9.34868" id="Fill-1" fill="#FFFFFF" mask="url(#mask-2)"></path>
            </g>
        </g>
    </g>
</svg>